<svg width="12" height="7" viewBox="0 0 12 7" fill="none" xmlns="http://www.w3.org/2000/svg">
<path d="M10.7932 0.149609C10.9635 0.151089 11.1268 0.219636 11.2473 0.340038C11.3677 0.460505 11.4361 0.623789 11.4377 0.79414C11.4392 0.964477 11.3734 1.12857 11.2551 1.25117L6.25311 6.25312C6.19277 6.31349 6.12102 6.36206 6.04218 6.39473C5.96355 6.42723 5.87922 6.44352 5.79413 6.44355C5.70882 6.44355 5.62392 6.42736 5.5451 6.39473C5.46625 6.36206 5.39451 6.31349 5.33417 6.25312L0.332214 1.25117C0.21401 1.12861 0.148118 0.964417 0.149597 0.79414C0.151134 0.623791 0.219563 0.460502 0.340027 0.340038C0.460493 0.219575 0.623778 0.151143 0.794128 0.149609C0.964406 0.148129 1.1286 0.214021 1.25116 0.332226L5.79315 4.87422L10.3342 0.334179L10.3361 0.332226C10.4587 0.213939 10.6228 0.14817 10.7932 0.149609Z" fill="#FF9D29" stroke="#FF9D29" stroke-width="0.3"/>
</svg>
