<svg width="12" height="7" viewBox="0 0 12 7" fill="none" xmlns="http://www.w3.org/2000/svg">
<path d="M10.7932 0.149597C10.9636 0.151077 11.1268 0.219625 11.2473 0.340027C11.3678 0.460493 11.4362 0.623778 11.4377 0.794128C11.4392 0.964466 11.3735 1.12856 11.2551 1.25116L6.25317 6.25311C6.19283 6.31347 6.12109 6.36205 6.04224 6.39471C5.96361 6.42722 5.87928 6.44351 5.79419 6.44354C5.70888 6.44354 5.62398 6.42735 5.54517 6.39471C5.46631 6.36204 5.39458 6.31348 5.33423 6.25311L0.332275 1.25116C0.214071 1.1286 0.148179 0.964405 0.149658 0.794128C0.151195 0.623779 0.219624 0.460491 0.340088 0.340027C0.460554 0.219564 0.623839 0.151132 0.794189 0.149597C0.964467 0.148118 1.12866 0.21401 1.25122 0.332214L5.79321 4.87421L10.3342 0.334167L10.3362 0.332214C10.4587 0.213928 10.6229 0.148159 10.7932 0.149597Z" fill="#FF9D29" stroke="#FF9D29" stroke-width="0.3"/>
</svg>
