<svg width="461" height="405" viewBox="0 0 461 405" fill="none" xmlns="http://www.w3.org/2000/svg">
<path d="M458.771 174.235C459.195 176.898 459.558 179.578 459.862 182.273L458.871 182.385C459.171 185.045 459.412 187.72 459.594 190.409L460.59 190.342C460.771 193.025 460.893 195.722 460.954 198.433V198.434L459.955 198.456C459.985 199.801 460 201.149 460 202.5C460 203.851 459.985 205.199 459.955 206.544L460.954 206.566C460.893 209.277 460.771 211.974 460.59 214.657L459.594 214.591C459.412 217.28 459.171 219.955 458.871 222.615L459.862 222.727C459.558 225.421 459.195 228.101 458.771 230.764L457.785 230.607C457.362 233.268 456.88 235.912 456.34 238.538L457.317 238.738C456.772 241.39 456.168 244.023 455.507 246.638L454.539 246.393C453.879 249.001 453.162 251.59 452.388 254.159L453.345 254.446C452.565 257.036 451.727 259.605 450.834 262.153L449.892 261.823C449.002 264.361 448.058 266.878 447.059 269.372L447.986 269.743C446.981 272.252 445.921 274.737 444.809 277.199L443.898 276.788C442.792 279.236 441.632 281.661 440.421 284.062L441.312 284.512C440.095 286.923 438.826 289.309 437.506 291.669L436.635 291.182C435.324 293.526 433.962 295.845 432.552 298.137L433.402 298.66C431.988 300.958 430.526 303.23 429.015 305.474L428.186 304.915C426.686 307.141 425.139 309.34 423.546 311.511L424.351 312.102C422.754 314.276 421.112 316.423 419.425 318.539L418.645 317.916C416.971 320.015 415.253 322.085 413.491 324.125L414.246 324.778C412.483 326.82 410.678 328.831 408.83 330.811L408.1 330.129C406.269 332.09 404.398 334.02 402.486 335.918L403.189 336.627C401.277 338.526 399.324 340.394 397.333 342.229L396.656 341.494C394.682 343.313 392.671 345.099 390.621 346.852L391.27 347.61C389.22 349.363 387.133 351.083 385.011 352.769L384.39 351.986C382.289 353.654 380.153 355.289 377.982 356.889L378.575 357.692C376.407 359.291 374.205 360.856 371.97 362.385L371.405 361.56C369.19 363.074 366.943 364.554 364.664 365.998L365.199 366.842C362.921 368.285 360.613 369.693 358.273 371.064L357.769 370.202C355.454 371.559 353.109 372.88 350.736 374.164L351.211 375.043C348.843 376.324 346.446 377.57 344.022 378.777L343.577 377.883C341.176 379.079 338.747 380.239 336.292 381.36L336.707 382.269C334.255 383.389 331.777 384.472 329.274 385.517L328.89 384.595C326.414 385.628 323.913 386.623 321.39 387.58L321.743 388.514C319.226 389.468 316.686 390.384 314.123 391.261L313.801 390.315C311.262 391.184 308.701 392.015 306.119 392.806L306.411 393.76C303.833 394.55 301.234 395.301 298.614 396.012L298.354 395.048C295.767 395.75 293.161 396.412 290.536 397.035L290.767 398.008C288.147 398.63 285.509 399.211 282.854 399.753L282.655 398.773C280.025 399.31 277.378 399.807 274.714 400.264L274.882 401.248C272.227 401.703 269.556 402.118 266.869 402.492L266.731 401.503C264.078 401.872 261.409 402.202 258.727 402.491L258.832 403.484C256.155 403.773 253.464 404.021 250.759 404.228L250.684 403.231C248.006 403.436 245.315 403.601 242.611 403.725L242.656 404.722C239.972 404.844 237.275 404.927 234.567 404.968L234.554 403.969C233.205 403.989 231.854 404 230.5 404C229.146 404 227.795 403.989 226.446 403.969L226.432 404.968C223.724 404.927 221.027 404.844 218.343 404.722L218.389 403.725C215.685 403.601 212.994 403.436 210.316 403.231L210.24 404.228C207.535 404.021 204.844 403.773 202.166 403.484L202.273 402.491C199.591 402.202 196.922 401.872 194.269 401.503L194.13 402.492C191.443 402.118 188.772 401.703 186.117 401.248L186.286 400.264C183.622 399.807 180.975 399.31 178.345 398.773L178.146 399.753C175.49 399.211 172.852 398.63 170.232 398.008H170.233L170.464 397.035C167.839 396.412 165.233 395.75 162.646 395.048L162.384 396.012C159.765 395.301 157.166 394.549 154.588 393.76L154.881 392.806C152.299 392.015 149.738 391.184 147.199 390.315L146.876 391.261C144.313 390.384 141.773 389.468 139.256 388.514L139.61 387.58C137.087 386.623 134.586 385.628 132.11 384.595L131.725 385.517C129.222 384.472 126.744 383.389 124.292 382.269L124.707 381.36C122.253 380.239 119.824 379.079 117.423 377.883L116.977 378.777C114.553 377.57 112.156 376.324 109.788 375.043L110.264 374.164C107.891 372.88 105.546 371.559 103.231 370.202L102.726 371.064C100.386 369.693 98.0776 368.285 95.7998 366.842L96.3359 365.998C94.0572 364.554 91.8096 363.074 89.5947 361.56L89.0293 362.385C86.794 360.856 84.5923 359.291 82.4238 357.692L83.0176 356.889C80.8474 355.289 78.7109 353.654 76.6104 351.986L75.9883 352.769C73.8657 351.083 71.7791 349.363 69.7295 347.61L70.3789 346.852C68.3295 345.099 66.3176 343.313 64.3438 341.494L63.666 342.229C61.6746 340.394 59.7222 338.526 57.8096 336.627L58.5137 335.918C56.602 334.02 54.7305 332.09 52.9004 330.129L52.1689 330.811C50.3212 328.831 48.5157 326.82 46.7529 324.778L47.5088 324.125C45.7474 322.085 44.0291 320.015 42.3555 317.916L41.5742 318.539C39.8868 316.423 38.2448 314.276 36.6484 312.102L37.4541 311.511C35.861 309.34 34.3139 307.141 32.8145 304.915L31.9854 305.474H31.9844C30.4733 303.23 29.0108 300.958 27.5967 298.66L28.4482 298.137C27.0378 295.845 25.6761 293.526 24.3652 291.182L23.4932 291.669C22.1733 289.309 20.9036 286.923 19.6865 284.512L20.5791 284.062C19.3675 281.661 18.2082 279.236 17.1016 276.788L16.1904 277.199C15.0776 274.737 14.0175 272.252 13.0127 269.743L13.9414 269.372C12.9423 266.878 11.9976 264.361 11.1084 261.823L10.165 262.153C9.27227 259.605 8.43443 257.036 7.6543 254.446L8.6123 254.159C7.83843 251.59 7.12088 249.001 6.46094 246.393L5.49121 246.637C4.82977 244.023 4.22682 241.389 3.68164 238.738L4.66016 238.538C4.1201 235.912 3.63777 233.268 3.21484 230.607L2.22754 230.764C1.8042 228.101 1.44095 225.421 1.13672 222.726L2.12891 222.615C1.82866 219.955 1.58752 217.28 1.40625 214.591L0.40918 214.657C0.228327 211.974 0.105689 209.277 0.0449219 206.566L1.04492 206.544C1.01477 205.199 1 203.851 1 202.5C1 201.149 1.01477 199.801 1.04492 198.456L0.0458984 198.434L0.0449219 198.433C0.105704 195.722 0.228313 193.025 0.40918 190.342L1.40625 190.409C1.58752 187.72 1.82866 185.045 2.12891 182.385L1.13672 182.272C1.39498 179.985 1.69583 177.708 2.04004 175.443L2.22754 174.235L3.21484 174.393C3.63777 171.732 4.12009 169.088 4.66016 166.462L3.68164 166.261C4.22692 163.609 4.83062 160.976 5.49219 158.361L6.46094 158.607C7.12088 155.999 7.83843 153.41 8.6123 150.841L7.6543 150.553C8.43444 147.963 9.27226 145.394 10.165 142.846L11.1084 143.177C11.9976 140.639 12.9423 138.122 13.9414 135.628L13.0127 135.256C14.0175 132.747 15.0776 130.262 16.1904 127.8L17.1016 128.212C18.2082 125.764 19.3675 123.339 20.5791 120.938L19.6865 120.487C20.9036 118.076 22.1733 115.69 23.4932 113.33L24.3652 113.818C25.6761 111.474 27.0378 109.155 28.4482 106.863L27.5967 106.339C29.0108 104.041 30.4733 101.769 31.9844 99.5254L31.9854 99.5264L32.8145 100.085C34.3139 97.8587 35.861 95.6596 37.4541 93.4893L36.6484 92.8975C38.0417 90.9995 39.4699 89.1232 40.9326 87.2695L41.5742 86.46L42.3555 87.084C44.0291 84.9848 45.7474 82.9146 47.5088 80.875L46.7529 80.2207C48.5157 78.1794 50.3212 76.1681 52.1689 74.1885L52.9004 74.8711C54.7305 72.9103 56.602 70.9802 58.5137 69.082L57.8096 68.3721C59.7222 66.4729 61.6746 64.6051 63.666 62.7705L64.3438 63.5059C66.3176 61.6875 68.3295 59.9012 70.3789 58.1484L69.7295 57.3887C71.7791 55.6357 73.8657 53.916 75.9883 52.2305L76.6104 53.0137C78.7109 51.3456 80.8474 49.7112 83.0176 48.1113L82.4238 47.3066C84.5923 45.7081 86.794 44.143 89.0293 42.6143L89.0303 42.6152L89.5947 43.4404C91.8096 41.9257 94.0572 40.446 96.3359 39.002L95.7998 38.1572C97.7196 36.9406 99.6615 35.7494 101.625 34.584L102.726 33.9346L103.231 34.7979C105.546 33.441 107.891 32.12 110.264 30.8359L109.788 29.9561C112.156 28.6746 114.553 27.4291 116.977 26.2217L117.423 27.1172C119.824 25.9209 122.253 24.7612 124.708 23.6396L124.292 22.7305C126.744 21.6101 129.222 20.5268 131.725 19.4824L132.11 20.4053C134.586 19.3722 137.087 18.3766 139.61 17.4199L139.256 16.4854C141.773 15.5311 144.313 14.6151 146.876 13.7383L147.199 14.6846C149.738 13.8159 152.299 12.9851 154.881 12.1943L154.588 11.2393C157.166 10.4495 159.765 9.69807 162.385 8.9873L162.646 9.95215C165.233 9.25027 167.839 8.5878 170.464 7.96484L170.233 6.99219L170.232 6.99121C172.852 6.36951 175.49 5.78793 178.146 5.24609L178.345 6.22656C180.975 5.68995 183.622 5.19279 186.286 4.73633L186.117 3.75098C188.772 3.29604 191.443 2.88096 194.13 2.50684L194.269 3.49707C196.922 3.12758 199.591 2.7977 202.273 2.50879L202.167 1.51465C204.844 1.22636 207.536 0.978406 210.24 0.771484L210.316 1.76855C212.994 1.5637 215.685 1.3988 218.389 1.27539L218.343 0.277344C221.027 0.154797 223.724 0.0724242 226.432 0.03125L226.446 1.03125C227.795 1.01075 229.146 1 230.5 1C231.854 1 233.205 1.01075 234.554 1.03125L234.567 0.03125C237.275 0.0724142 239.972 0.154807 242.656 0.277344L242.611 1.27539C245.315 1.3988 248.006 1.5637 250.684 1.76855L250.759 0.771484C253.464 0.97842 256.156 1.22633 258.833 1.51465L258.727 2.50879C261.409 2.7977 264.078 3.12758 266.731 3.49707L266.869 2.50684C269.556 2.88095 272.227 3.29605 274.882 3.75098L274.714 4.73633C277.378 5.19279 280.025 5.68995 282.655 6.22656L282.854 5.24609C285.509 5.78792 288.147 6.36952 290.767 6.99121V6.99219L290.536 7.96484C293.161 8.5878 295.767 9.25027 298.354 9.95215L298.615 8.9873C301.234 9.69799 303.833 10.4496 306.411 11.2393L306.119 12.1943C308.701 12.9851 311.262 13.8159 313.801 14.6846L314.123 13.7383C316.686 14.6151 319.226 15.5311 321.743 16.4854L321.39 17.4199C323.913 18.3766 326.414 19.3722 328.89 20.4053L329.274 19.4824C331.777 20.5268 334.255 21.6101 336.707 22.7305H336.708L336.293 23.6396C338.747 24.7611 341.176 25.921 343.577 27.1172L344.022 26.2217C346.446 27.4291 348.843 28.6746 351.211 29.9561H351.212L350.736 30.8359C353.109 32.12 355.454 33.441 357.769 34.7979L358.273 33.9346C360.613 35.3058 362.921 36.7138 365.199 38.1572L364.664 39.002C366.943 40.446 369.19 41.9257 371.405 43.4404L371.97 42.6152V42.6143C374.205 44.143 376.407 45.7081 378.575 47.3066L377.982 48.1113C380.153 49.7112 382.289 51.3456 384.39 53.0137L385.011 52.2305C387.133 53.916 389.22 55.6357 391.27 57.3887L390.621 58.1484C392.671 59.9012 394.682 61.6875 396.656 63.5059L397.333 62.7705C399.324 64.6051 401.277 66.4729 403.189 68.3721H403.19L402.486 69.082C404.398 70.9802 406.269 72.9103 408.1 74.8711L408.83 74.1885C410.678 76.1682 412.483 78.1794 414.246 80.2207L413.491 80.875C415.253 82.9146 416.971 84.9848 418.645 87.084L419.425 86.46C421.112 88.5764 422.754 90.7228 424.351 92.8975L423.546 93.4893C425.139 95.6596 426.686 97.8587 428.186 100.085L429.015 99.5264V99.5254C430.526 101.769 431.988 104.041 433.402 106.339L432.552 106.863C433.962 109.155 435.324 111.474 436.635 113.818L437.506 113.33C438.826 115.69 440.095 118.076 441.312 120.487L440.421 120.938C441.632 123.339 442.792 125.764 443.898 128.212L444.809 127.8C445.921 130.262 446.981 132.747 447.986 135.256L447.059 135.628C448.058 138.122 449.002 140.639 449.892 143.177L450.834 142.846C451.727 145.394 452.565 147.963 453.345 150.553L452.388 150.841C453.162 153.41 453.879 155.999 454.539 158.607L455.508 158.362C456.169 160.976 456.772 163.61 457.317 166.261L456.34 166.462C456.88 169.088 457.362 171.732 457.785 174.393L458.771 174.235Z" stroke="url(#paint0_linear_103_4)" stroke-width="2" stroke-dasharray="8 8"/>
<circle cx="7.5" cy="154.5" r="4.5" fill="#FA1D1D"/>
<circle cx="354.5" cy="32.5" r="4.5" fill="#FA1D1D"/>
<circle opacity="0.9" cx="453.5" cy="250.5" r="4.5" fill="#FA1D1D"/>
<defs>
<linearGradient id="paint0_linear_103_4" x1="230.5" y1="0" x2="231.258" y2="529" gradientUnits="userSpaceOnUse">
<stop stop-color="#FA1D1D"/>
<stop offset="1" stop-color="#FA1D1D" stop-opacity="0"/>
</linearGradient>
</defs>
</svg>
