<svg width="22" height="29" viewBox="0 0 22 29" fill="none" xmlns="http://www.w3.org/2000/svg">
<path d="M10.8173 7.21158L12.4885 10.7723L16.2259 11.3438L13.5216 14.1148L14.1598 18.0289L10.8173 16.1809L7.4747 18.0289L8.11293 14.1148L5.4086 11.3438L9.14598 10.7723L10.8173 7.21158ZM10.8173 5.40869C10.1177 5.40869 9.48312 5.81254 9.18564 6.44535L7.92362 9.13525L5.13636 9.56073C4.46749 9.6635 3.91401 10.1304 3.69946 10.7705C3.48492 11.4105 3.64718 12.119 4.11773 12.6022L6.18744 14.7224L5.69526 17.7386C5.58348 18.4201 5.87194 19.1052 6.43624 19.5036C6.74634 19.7218 7.11052 19.8318 7.4747 19.8318C7.77398 19.8318 8.07506 19.7578 8.3473 19.6064L10.8173 18.2416L13.2872 19.6064C13.5594 19.7578 13.8605 19.8318 14.1598 19.8318C14.524 19.8318 14.8882 19.7218 15.1983 19.5036C15.7626 19.1052 16.051 18.4201 15.9392 17.7386L15.4471 14.7224L17.5168 12.6022C17.9891 12.119 18.1514 11.4123 17.9368 10.7705C17.7223 10.1286 17.167 9.6617 16.4999 9.56073L13.7127 9.13525L12.4507 6.44535C12.1532 5.81254 11.5168 5.40869 10.8173 5.40869Z" fill="white"/>
<path d="M10.8173 1.80288L19.8317 4.95793V15.4651C19.8317 17.8035 18.8419 20.021 17.1328 21.5174L10.8173 27.0433L4.5018 21.5174C2.79267 20.021 1.80288 17.8035 1.80288 15.4651V4.95793L10.8173 1.80288ZM10.8173 0C10.6154 0 10.4153 0.0342548 10.2224 0.100962L1.20793 3.25601C0.484976 3.51022 0 4.19171 0 4.95793V15.4651C0 18.3299 1.20793 21.0306 3.3155 22.875L9.63101 28.4008C9.96995 28.6983 10.3936 28.8462 10.8173 28.8462C11.241 28.8462 11.6647 28.6983 12.0054 28.4008L18.3209 22.875C20.4267 21.0306 21.6346 18.3299 21.6346 15.4651V4.95793C21.6346 4.19171 21.1496 3.51022 20.4267 3.25601L11.4123 0.100962C11.2194 0.0342548 11.0192 0 10.8173 0Z" fill="white"/>
</svg>
