<svg width="269" height="11" viewBox="0 0 269 11" fill="none" xmlns="http://www.w3.org/2000/svg">
<path d="M257.667 5.33333C257.667 8.27885 260.054 10.6667 263 10.6667C265.946 10.6667 268.333 8.27885 268.333 5.33333C268.333 2.38781 265.946 -1.79203e-06 263 -1.53452e-06C260.054 -1.27701e-06 257.667 2.38781 257.667 5.33333ZM8.74228e-08 6.33335L4.10938 6.33335L4.10937 4.33335L-8.74228e-08 4.33335L8.74228e-08 6.33335ZM12.3281 6.33335L20.5469 6.33335L20.5469 4.33335L12.3281 4.33335L12.3281 6.33335ZM28.7656 6.33335L36.9844 6.33335L36.9844 4.33335L28.7656 4.33335L28.7656 6.33335ZM45.2031 6.33335L53.4219 6.33335L53.4219 4.33335L45.2031 4.33335L45.2031 6.33335ZM61.6406 6.33335L69.8594 6.33335L69.8594 4.33335L61.6406 4.33335L61.6406 6.33335ZM78.0781 6.33335L86.2969 6.33335L86.2969 4.33335L78.0781 4.33335L78.0781 6.33335ZM94.5156 6.33335L102.734 6.33335L102.734 4.33335L94.5156 4.33335L94.5156 6.33335ZM110.953 6.33335L119.172 6.33334L119.172 4.33334L110.953 4.33335L110.953 6.33335ZM127.391 6.33334L135.609 6.33334L135.609 4.33334L127.391 4.33334L127.391 6.33334ZM143.828 6.33334L152.047 6.33334L152.047 4.33334L143.828 4.33334L143.828 6.33334ZM160.266 6.33334L168.484 6.33334L168.484 4.33334L160.266 4.33334L160.266 6.33334ZM176.703 6.33334L184.922 6.33334L184.922 4.33334L176.703 4.33334L176.703 6.33334ZM193.141 6.33334L201.359 6.33334L201.359 4.33334L193.141 4.33334L193.141 6.33334ZM209.578 6.33334L217.797 6.33334L217.797 4.33334L209.578 4.33334L209.578 6.33334ZM226.016 6.33334L234.234 6.33333L234.234 4.33333L226.016 4.33334L226.016 6.33334ZM242.453 6.33333L250.672 6.33333L250.672 4.33333L242.453 4.33333L242.453 6.33333ZM258.891 6.33333L263 6.33333L263 4.33333L258.891 4.33333L258.891 6.33333ZM257.667 5.33333C257.667 8.27885 260.054 10.6667 263 10.6667C265.946 10.6667 268.333 8.27885 268.333 5.33333C268.333 2.38781 265.946 -1.79203e-06 263 -1.53452e-06C260.054 -1.27701e-06 257.667 2.38781 257.667 5.33333ZM8.74228e-08 6.33335L4.10938 6.33335L4.10937 4.33335L-8.74228e-08 4.33335L8.74228e-08 6.33335ZM12.3281 6.33335L20.5469 6.33335L20.5469 4.33335L12.3281 4.33335L12.3281 6.33335ZM28.7656 6.33335L36.9844 6.33335L36.9844 4.33335L28.7656 4.33335L28.7656 6.33335ZM45.2031 6.33335L53.4219 6.33335L53.4219 4.33335L45.2031 4.33335L45.2031 6.33335ZM61.6406 6.33335L69.8594 6.33335L69.8594 4.33335L61.6406 4.33335L61.6406 6.33335ZM78.0781 6.33335L86.2969 6.33335L86.2969 4.33335L78.0781 4.33335L78.0781 6.33335ZM94.5156 6.33335L102.734 6.33335L102.734 4.33335L94.5156 4.33335L94.5156 6.33335ZM110.953 6.33335L119.172 6.33334L119.172 4.33334L110.953 4.33335L110.953 6.33335ZM127.391 6.33334L135.609 6.33334L135.609 4.33334L127.391 4.33334L127.391 6.33334ZM143.828 6.33334L152.047 6.33334L152.047 4.33334L143.828 4.33334L143.828 6.33334ZM160.266 6.33334L168.484 6.33334L168.484 4.33334L160.266 4.33334L160.266 6.33334ZM176.703 6.33334L184.922 6.33334L184.922 4.33334L176.703 4.33334L176.703 6.33334ZM193.141 6.33334L201.359 6.33334L201.359 4.33334L193.141 4.33334L193.141 6.33334ZM209.578 6.33334L217.797 6.33334L217.797 4.33334L209.578 4.33334L209.578 6.33334ZM226.016 6.33334L234.234 6.33333L234.234 4.33333L226.016 4.33334L226.016 6.33334ZM242.453 6.33333L250.672 6.33333L250.672 4.33333L242.453 4.33333L242.453 6.33333ZM258.891 6.33333L263 6.33333L263 4.33333L258.891 4.33333L258.891 6.33333Z" fill="#FA1D1D"/>
</svg>
