<svg width="282" height="44" viewBox="0 0 282 44" fill="none" xmlns="http://www.w3.org/2000/svg">
<path d="M51.584 34V9.952H59.504C61.472 9.952 63.296 10.156 64.976 10.564C66.68 10.948 68.156 11.608 69.404 12.544C70.676 13.456 71.66 14.692 72.356 16.252C73.076 17.788 73.436 19.696 73.436 21.976C73.436 24.28 73.076 26.2 72.356 27.736C71.66 29.272 70.676 30.508 69.404 31.444C68.156 32.356 66.68 33.016 64.976 33.424C63.296 33.808 61.472 34 59.504 34H51.584ZM57.272 29.212H59.612C60.644 29.212 61.628 29.128 62.564 28.96C63.524 28.792 64.376 28.468 65.12 27.988C65.888 27.484 66.488 26.752 66.92 25.792C67.352 24.832 67.568 23.56 67.568 21.976C67.568 20.392 67.352 19.12 66.92 18.16C66.488 17.176 65.888 16.444 65.12 15.964C64.376 15.46 63.524 15.124 62.564 14.956C61.628 14.764 60.644 14.668 59.612 14.668H57.272V29.212ZM76.2637 34V9.952H85.5157C87.6037 9.952 89.4637 10.156 91.0957 10.564C92.7517 10.972 94.0477 11.716 94.9837 12.796C95.9437 13.876 96.4237 15.412 96.4237 17.404C96.4237 18.316 96.2557 19.228 95.9197 20.14C95.5837 21.028 94.9957 21.844 94.1557 22.588C93.3397 23.332 92.1637 23.908 90.6277 24.316L97.6117 34H91.0237L84.5077 24.928H81.9517V34H76.2637ZM81.9517 20.176H85.6957C87.0397 20.176 88.1557 20.008 89.0437 19.672C89.9557 19.312 90.4117 18.58 90.4117 17.476C90.4117 16.348 89.9557 15.616 89.0437 15.28C88.1557 14.92 87.0397 14.74 85.6957 14.74H81.9517V20.176ZM100.286 34V29.536H103.67V14.416H100.286V9.952H112.67V14.416H109.358V29.536H112.67V34H100.286ZM123.219 34L115.083 9.952H120.987L126.495 27.628L132.039 9.952H137.979L129.807 34H123.219ZM139.932 34V9.952H158.436V14.956H145.62V19.132H153.432V24.136H145.62V28.996H158.436V34H139.932ZM166.019 34L160.223 9.952H165.911L169.259 26.62L172.787 9.952H178.691L182.255 26.62L185.603 9.952H191.291L185.495 34H179.411L175.739 17.08L172.103 34H166.019ZM190.137 34L199.245 9.952H205.509L214.617 34H208.425L206.985 29.716H197.769L196.329 34H190.137ZM199.317 25.108H205.437L202.341 15.964L199.317 25.108ZM221.962 34V24.64L212.782 9.952H219.406L224.77 19.204L230.134 9.952H236.794L227.614 24.64V34H221.962ZM248.441 34.432C245.825 34.432 243.617 33.904 241.817 32.848C240.041 31.768 238.781 30.268 238.037 28.348L243.221 26.476C243.557 27.628 244.181 28.48 245.093 29.032C246.029 29.584 247.157 29.86 248.477 29.86C249.173 29.86 249.845 29.788 250.493 29.644C251.141 29.476 251.681 29.212 252.113 28.852C252.545 28.468 252.761 27.964 252.761 27.34C252.761 26.5 252.353 25.852 251.537 25.396C250.721 24.916 249.665 24.556 248.369 24.316L245.453 23.74C244.157 23.476 242.945 23.08 241.817 22.552C240.713 22 239.825 21.28 239.153 20.392C238.481 19.48 238.145 18.34 238.145 16.972C238.145 15.676 238.445 14.56 239.045 13.624C239.645 12.688 240.437 11.92 241.421 11.32C242.429 10.72 243.533 10.276 244.733 9.988C245.933 9.676 247.133 9.52 248.333 9.52C249.629 9.52 250.877 9.7 252.077 10.06C253.301 10.42 254.393 10.984 255.353 11.752C256.313 12.496 257.045 13.492 257.549 14.74L252.401 16.612C252.089 15.796 251.525 15.172 250.709 14.74C249.917 14.308 248.957 14.092 247.829 14.092C246.725 14.092 245.801 14.296 245.057 14.704C244.337 15.088 243.977 15.652 243.977 16.396C243.977 16.996 244.229 17.512 244.733 17.944C245.237 18.376 245.897 18.676 246.713 18.844L249.953 19.492C250.937 19.684 251.933 19.936 252.941 20.248C253.949 20.536 254.873 20.932 255.713 21.436C256.577 21.916 257.273 22.564 257.801 23.38C258.329 24.196 258.593 25.228 258.593 26.476C258.593 27.748 258.293 28.888 257.693 29.896C257.117 30.88 256.337 31.708 255.353 32.38C254.393 33.052 253.313 33.568 252.113 33.928C250.913 34.264 249.689 34.432 248.441 34.432Z" fill="#020920"/>
<g clip-path="url(#clip0_2354_197)">
<path d="M38 22C38 20.1238 37.7388 18.3425 37.24 16.6325L34.4613 15.8962C34.0812 14.8987 33.5825 13.9488 33.0125 13.0463L36.195 13.9013C35.1975 11.7638 33.7962 9.86375 32.11 8.24875L29.3313 8.985C28.5 8.32 27.5975 7.72625 26.6475 7.25125L29.83 6.39625C27.93 5.06625 25.7925 4.0925 23.465 3.5225L21.4462 5.565C20.6625 5.4225 19.8312 5.375 19 5.375C18.7388 5.375 18.4775 5.375 18.2162 5.4225L20.5912 3.07125C20.0688 3.02375 19.5462 3 19 3C17.1238 3 15.3425 3.26125 13.6325 3.76L12.8962 6.53875C11.8987 6.91875 10.9488 7.4175 10.0463 7.9875L10.9013 4.805C8.76375 5.8025 6.86375 7.20375 5.24875 8.89L5.985 11.6687C5.32 12.5 4.72625 13.4025 4.25125 14.3525L3.39625 11.17C2.09 13.0463 1.0925 15.2075 0.5225 17.5113L2.58875 19.5775C2.44625 20.3612 2.375 21.1688 2.375 22C2.375 22.2612 2.375 22.5225 2.4225 22.7838L0.07125 20.4325C0.02375 20.955 0 21.4775 0 22C0 23.8525 0.26125 25.6575 0.76 27.3438L3.53875 28.08C3.91875 29.1013 4.4175 30.0513 4.9875 30.9538L1.805 30.0987C2.8025 32.2362 4.20375 34.1362 5.89 35.7513L8.66875 35.015C9.5 35.68 10.4025 36.2738 11.3525 36.7487L8.17 37.6037C10.0463 38.91 12.2075 39.9075 14.5113 40.4775L16.5775 38.435C17.3612 38.5537 18.1688 38.625 19 38.625C19.2612 38.625 19.5225 38.625 19.7838 38.5775L17.4325 40.9287C17.955 40.9762 18.4775 41 19 41C20.8525 41 22.6575 40.7388 24.3438 40.24L25.08 37.4613C26.1013 37.0812 27.0513 36.5825 27.9538 36.0125L27.0987 39.195C29.2362 38.1975 31.1362 36.7962 32.7513 35.11L31.9913 32.355C32.6562 31.5237 33.25 30.6213 33.7487 29.6475L34.6037 32.83C35.91 30.9538 36.9075 28.7925 37.4775 26.4888L35.435 24.4462C35.5537 23.6625 35.625 22.8312 35.625 22C35.625 21.7388 35.625 21.4775 35.5775 21.2162L37.9287 23.5675C37.9762 23.045 38 22.5225 38 22ZM19 31.5C13.7513 31.5 9.5 27.2488 9.5 22C9.5 16.7513 13.7513 12.5 19 12.5C24.2488 12.5 28.5 16.7513 28.5 22C28.5 27.2488 24.2488 31.5 19 31.5Z" fill="#020920"/>
<path d="M19 14.875C15.0812 14.875 11.875 18.0812 11.875 22C11.875 25.9187 15.0812 29.125 19 29.125C22.9187 29.125 26.125 25.9187 26.125 22C26.125 18.0812 22.9187 14.875 19 14.875ZM15.2475 22.0238C14.63 21.8338 14.2737 21.145 14.4875 20.5275C14.6775 19.91 15.3663 19.5775 15.9837 19.7675C16.6013 19.9812 16.9338 20.6463 16.7438 21.2638C16.53 21.8812 15.865 22.2375 15.2475 22.0238ZM17.86 25.5863C17.48 26.1088 16.7438 26.2275 16.1975 25.8475C15.675 25.4675 15.5563 24.7075 15.9363 24.185C16.34 23.6625 17.0762 23.5438 17.5987 23.9238C18.145 24.3038 18.2638 25.04 17.86 25.5863ZM19 19.625C18.335 19.625 17.8125 19.1025 17.8125 18.4375C17.8125 17.7725 18.335 17.25 19 17.25C19.665 17.25 20.1875 17.7725 20.1875 18.4375C20.1875 19.1025 19.665 19.625 19 19.625ZM21.8025 25.8475C21.2563 26.2275 20.52 26.1088 20.14 25.5863C19.7362 25.04 19.855 24.3038 20.4013 23.9238C20.9237 23.5438 21.66 23.6625 22.0638 24.185C22.4437 24.7075 22.325 25.4675 21.8025 25.8475ZM22.7525 22.0238C22.135 22.2375 21.47 21.8812 21.2562 21.2638C21.0662 20.6463 21.3988 19.9812 22.0163 19.7675C22.6338 19.5775 23.3225 19.91 23.5125 20.5275C23.7262 21.145 23.37 21.8338 22.7525 22.0238Z" fill="#FA1D1D"/>
</g>
<defs>
<clipPath id="clip0_2354_197">
<rect width="38" height="38" fill="white" transform="translate(0 3)"/>
</clipPath>
</defs>
</svg>
