<svg width="25" height="25" viewBox="0 0 25 25" fill="none" xmlns="http://www.w3.org/2000/svg">
<g clip-path="url(#clip0_102_1122)">
<path d="M12.0168 9.0145C13.6743 9.0145 15.0222 7.66684 15.0222 6.00969C15.0222 4.35254 13.6743 3.00488 12.0168 3.00488C10.3594 3.00488 9.01147 4.35254 9.01147 6.00969C9.01147 7.66684 10.3609 9.0145 12.0168 9.0145ZM12.0168 4.50729C12.8463 4.50729 13.5195 5.18036 13.5195 6.00969C13.5195 6.83902 12.8463 7.51209 12.0168 7.51209C11.1874 7.51209 10.5142 6.83902 10.5142 6.00969C10.5142 5.18036 11.1889 4.50729 12.0168 4.50729Z" fill="white"/>
<path d="M24.0085 23.0769L19.5305 9.55529C19.4403 9.22476 19.1398 9.01442 18.8092 9.01442H17.1562C17.7273 7.82752 18.0278 6.77584 18.0278 5.84435C18.0278 2.61418 15.338 0 12.0171 0C8.69613 0 6.00632 2.61418 6.00632 5.84435C6.00632 6.77584 6.30686 7.82752 6.87788 9.01442H5.28503C4.95444 9.01442 4.66893 9.22476 4.56374 9.55529L0.0256337 23.0769C-0.0344737 23.3023 0.0106069 23.5427 0.145849 23.738C0.28109 23.9183 0.506493 24.0385 0.746923 24.0385H23.2872C23.5276 24.0385 23.753 23.9183 23.8883 23.738C24.0386 23.5427 24.0686 23.3023 24.0085 23.0769ZM12.0171 1.5024C14.4965 1.5024 16.5251 3.4405 16.5251 5.84435C16.5251 6.73077 16.1495 7.73738 15.6235 8.72897C15.5784 8.81911 15.5033 8.92428 15.4582 9.01442C15.2328 9.40505 15.0074 9.79567 14.752 10.1713C14.6768 10.2915 14.5867 10.3966 14.5115 10.5168C13.6099 11.7939 12.6181 12.8906 12.0171 13.5216C11.431 12.8906 10.4392 11.7939 9.52261 10.5168C9.44747 10.3966 9.35731 10.2915 9.28218 10.1713C9.02672 9.79567 8.80132 9.40505 8.59094 9.01442C8.53083 8.92428 8.47073 8.81911 8.41062 8.72897C7.88468 7.73738 7.50901 6.73077 7.50901 5.84435C7.50901 3.4405 9.53763 1.5024 12.0171 1.5024ZM1.75372 22.5361L5.84103 10.5168H7.71938C7.82457 10.6821 7.92976 10.8624 8.03495 11.0126C9.0718 12.5451 10.289 13.8972 10.9351 14.5583C11.2056 14.8588 11.6113 15.024 12.0171 15.024C12.4228 15.024 12.8285 14.8588 13.099 14.5583C13.7452 13.8972 14.9623 12.5451 15.9992 11.0126C16.1044 10.8624 16.2096 10.6821 16.3147 10.5168H18.2532L22.2804 22.5361H1.75372Z" fill="white"/>
</g>
<defs>
<clipPath id="clip0_102_1122">
<rect width="24.0385" height="24.0385" fill="white"/>
</clipPath>
</defs>
</svg>
