<svg width="25" height="25" viewBox="0 0 25 25" fill="none" xmlns="http://www.w3.org/2000/svg">
<g clip-path="url(#clip0_102_1159)">
<path d="M12.0193 7.51209C12.0193 5.02712 9.99707 3.00488 7.51209 3.00488C5.02712 3.00488 3.00488 5.02712 3.00488 7.51209C3.00488 9.99707 5.02712 12.0193 7.51209 12.0193C9.99707 12.0193 12.0193 9.99707 12.0193 7.51209ZM7.51209 10.5169C5.85494 10.5169 4.50729 9.16925 4.50729 7.51209C4.50729 5.85494 5.85494 4.50729 7.51209 4.50729C9.16925 4.50729 10.5169 5.85494 10.5169 7.51209C10.5169 9.16925 9.16925 10.5169 7.51209 10.5169Z" fill="white"/>
<path d="M17.2776 13.5217C15.8068 13.5217 14.3975 13.9589 13.2437 14.7221C11.8359 13.0439 9.74459 12.0193 7.51202 12.0193C3.36989 12.0193 0 15.3892 0 19.5313C0 20.3606 0.673077 21.0337 1.5024 21.0337H12.0192H13.5216H22.5361C23.3654 21.0337 24.0385 20.3606 24.0385 19.5313C24.0385 16.217 21.0051 13.5217 17.2776 13.5217ZM12.0192 19.5313H10.5168H1.5024C1.5024 16.2125 4.19321 13.5217 7.51202 13.5217C9.36148 13.5217 11.0006 14.3675 12.0989 15.6837C12.1154 15.7047 12.1304 15.7272 12.1469 15.7483C12.4564 16.1284 12.7284 16.5415 12.9387 16.9892C13.3023 17.763 13.5216 18.6193 13.5216 19.5313H12.0192ZM15.024 19.5313C15.024 18.4451 14.7806 17.3739 14.2984 16.3507C14.2368 16.2185 14.1692 16.0878 14.0986 15.9586C15.021 15.3561 16.1478 15.0241 17.2776 15.0241C20.1773 15.0241 22.5361 17.0463 22.5361 19.5313H15.024Z" fill="white"/>
<path d="M21.0337 9.76577C21.0337 7.69096 19.3526 6.00977 17.2777 6.00977C15.2029 6.00977 13.5217 7.69096 13.5217 9.76577C13.5217 11.8406 15.2029 13.5218 17.2777 13.5218C19.3526 13.5218 21.0337 11.8406 21.0337 9.76577ZM17.2777 12.0194C16.0352 12.0194 15.0241 11.0083 15.0241 9.76577C15.0241 8.52329 16.0352 7.51217 17.2777 7.51217C18.5202 7.51217 19.5313 8.52329 19.5313 9.76577C19.5313 11.0083 18.5202 12.0194 17.2777 12.0194Z" fill="white"/>
</g>
<defs>
<clipPath id="clip0_102_1159">
<rect width="24.0385" height="24.0385" fill="white"/>
</clipPath>
</defs>
</svg>
