<svg width="25" height="25" viewBox="0 0 25 25" fill="none" xmlns="http://www.w3.org/2000/svg">
<g clip-path="url(#clip0_102_1133)">
<path d="M8.04389 11.4873C7.75092 11.1943 7.27466 11.1943 6.98169 11.4873C6.68872 11.7803 6.68872 12.2565 6.98169 12.5495L11.4889 17.0567C11.6346 17.204 11.8269 17.2776 12.0192 17.2776C12.2116 17.2776 12.4039 17.204 12.5511 17.0582C12.8441 16.7652 12.8441 16.289 12.5511 15.996L8.04389 11.4873Z" fill="white"/>
<path d="M23.8191 0.219482C23.5261 -0.0734863 23.0499 -0.0734863 22.7569 0.219482L21.3972 1.57916C21.268 1.5461 21.1403 1.50254 21.0066 1.50254H21.0021H12.3738C11.9697 1.50404 11.5294 1.68883 11.244 1.97429L0.447716 12.7706C0.160757 13.0575 0 13.4466 0 13.8523C0 14.2579 0.160757 14.6471 0.447716 14.934L9.10306 23.5894C9.40204 23.8899 9.79417 24.0386 10.1863 24.0386C10.5784 24.0386 10.969 23.8899 11.268 23.5909L22.0643 12.7946C22.3498 12.5091 22.5361 12.0704 22.5361 11.6663V3.03799C22.5361 2.90127 22.494 2.77207 22.4579 2.64286L23.8176 1.28318C24.1121 0.988713 24.1121 0.513953 23.8191 0.219482ZM21.0021 11.7324L10.1668 22.5272L1.50992 13.8328L12.3017 3.041C12.3197 3.02747 12.3648 3.00794 12.3738 3.00494H19.9715L16.537 6.43943C16.0802 6.172 15.5619 6.00975 15.0225 6.00975C14.369 6.00975 13.7455 6.21708 13.2227 6.60921C12.5796 7.09148 12.1635 7.7931 12.0493 8.58787C11.9351 9.38264 12.1379 10.1744 12.6187 10.8159C13.1836 11.5701 14.082 12.0194 15.024 12.0194C15.6776 12.0194 16.3011 11.812 16.8239 11.4199C17.4669 10.9391 17.8831 10.236 17.9973 9.44124C18.095 8.75914 17.9462 8.08457 17.6007 7.49863L21.0337 4.06714V11.6513C21.0306 11.6738 21.0126 11.7189 21.0021 11.7324ZM15.2434 8.7952C15.3906 8.94094 15.5829 9.01455 15.7752 9.01455C15.9675 9.01455 16.1599 8.94094 16.3071 8.7952L16.4724 8.62994C16.6256 9.20536 16.4303 9.83937 15.9255 10.2165C15.6535 10.4193 15.338 10.517 15.024 10.517C14.5673 10.517 14.1166 10.3096 13.8206 9.91449C13.3233 9.25043 13.4585 8.30993 14.1226 7.81263C14.393 7.60981 14.7085 7.51215 15.0225 7.51215C15.1457 7.51215 15.2614 7.56473 15.3816 7.59478L15.2449 7.7315C14.9504 8.02597 14.9504 8.50073 15.2434 8.7952Z" fill="white"/>
</g>
<defs>
<clipPath id="clip0_102_1133">
<rect width="24.0385" height="24.0385" fill="white"/>
</clipPath>
</defs>
</svg>
