<svg width="25" height="25" viewBox="0 0 25 25" fill="none" xmlns="http://www.w3.org/2000/svg">
<g clip-path="url(#clip0_102_1128)">
<path d="M12.0192 0C5.38161 0 0 5.38161 0 12.0192C0 18.6568 5.38161 24.0385 12.0192 24.0385C18.6568 24.0385 24.0385 18.6568 24.0385 12.0192C24.0385 5.38161 18.6568 0 12.0192 0ZM12.0192 22.5361C6.21995 22.5361 1.5024 17.8185 1.5024 12.0192C1.5024 6.21995 6.21995 1.5024 12.0192 1.5024C17.8185 1.5024 22.5361 6.21995 22.5361 12.0192C22.5361 17.8185 17.8185 22.5361 12.0192 22.5361Z" fill="white"/>
<path d="M12.0193 5.25847C12.4339 5.25847 12.7705 4.92193 12.7705 4.50727V3.00486C12.7705 2.5902 12.4339 2.25366 12.0193 2.25366C11.6046 2.25366 11.2681 2.5902 11.2681 3.00486V4.50727C11.2681 4.92193 11.6046 5.25847 12.0193 5.25847Z" fill="white"/>
<path d="M15.3996 6.16427C15.5183 6.23187 15.6475 6.26493 15.7752 6.26493C16.0351 6.26493 16.2875 6.12971 16.4272 5.88933L17.1784 4.58824C17.3858 4.22917 17.2626 3.76943 16.9035 3.5621C16.5444 3.35477 16.0847 3.47797 15.8773 3.83704L15.1261 5.13812C14.9173 5.4972 15.0405 5.95693 15.3996 6.16427Z" fill="white"/>
<path d="M21.0336 11.2681H19.5312C19.1166 11.2681 18.78 11.6046 18.78 12.0193C18.78 12.4339 19.1166 12.7705 19.5312 12.7705H21.0336C21.4483 12.7705 21.7848 12.4339 21.7848 12.0193C21.7848 11.6046 21.4483 11.2681 21.0336 11.2681Z" fill="white"/>
<path d="M20.2013 15.876L18.9003 15.1248C18.5412 14.9159 18.0814 15.0406 17.8741 15.3997C17.6668 15.7588 17.79 16.2185 18.1491 16.4259L19.4501 17.1771C19.5688 17.2447 19.698 17.2777 19.8257 17.2777C20.0857 17.2777 20.3381 17.1425 20.4778 16.9021C20.6851 16.5431 20.5619 16.0833 20.2013 15.876Z" fill="white"/>
<path d="M8.1625 3.83706C7.95367 3.47648 7.49393 3.35329 7.13636 3.56212C6.77728 3.76945 6.65409 4.22769 6.86142 4.58826L7.61262 5.88935C7.75234 6.12973 8.00475 6.26495 8.26316 6.26495C8.39087 6.26495 8.52007 6.2334 8.63876 6.16429C8.99784 5.95695 9.12103 5.49722 8.9137 5.13814L8.1625 3.83706Z" fill="white"/>
<path d="M5.88935 7.6128L4.58826 6.8616C4.22769 6.65276 3.76945 6.77746 3.56212 7.13654C3.35329 7.49561 3.47648 7.95535 3.83706 8.16268L5.13814 8.91388C5.25683 8.98299 5.38454 9.01454 5.51224 9.01454C5.77216 9.01454 6.02456 8.87933 6.16429 8.63894C6.37162 8.27987 6.24842 7.82013 5.88935 7.6128Z" fill="white"/>
<path d="M5.25847 12.0193C5.25847 11.6046 4.92193 11.2681 4.50727 11.2681H3.00486C2.5902 11.2681 2.25366 11.6046 2.25366 12.0193C2.25366 12.4339 2.5902 12.7705 3.00486 12.7705H4.50727C4.92193 12.7705 5.25847 12.4339 5.25847 12.0193Z" fill="white"/>
<path d="M5.13812 15.1248L3.83704 15.876C3.47797 16.0833 3.35477 16.5431 3.5621 16.9021C3.70183 17.1425 3.95423 17.2777 4.21415 17.2777C4.34185 17.2777 4.47106 17.2462 4.58975 17.1771L5.89083 16.4259C6.2499 16.2185 6.3731 15.7588 6.16577 15.3997C5.95543 15.0406 5.49419 14.9159 5.13812 15.1248Z" fill="white"/>
<path d="M12.0193 14.6484C13.4692 14.6484 14.6486 13.469 14.6486 12.0192C14.6486 11.8104 14.617 11.6091 14.5704 11.4137L20.1984 8.16405C20.5575 7.95672 20.6807 7.49698 20.4734 7.13791C20.2645 6.77733 19.8033 6.65564 19.4472 6.86297L13.8192 10.1127C13.3475 9.66796 12.7165 9.39001 12.0193 9.39001C10.5695 9.39001 9.39014 10.5694 9.39014 12.0192C9.39014 13.469 10.5695 14.6484 12.0193 14.6484ZM12.0193 10.8924C12.6413 10.8924 13.1461 11.3972 13.1461 12.0192C13.1461 12.6412 12.6413 13.146 12.0193 13.146C11.3973 13.146 10.8925 12.6412 10.8925 12.0192C10.8925 11.3972 11.3973 10.8924 12.0193 10.8924Z" fill="white"/>
<path d="M14.2728 18.0288H9.76561C9.35094 18.0288 9.0144 18.3653 9.0144 18.78C9.0144 19.1947 9.35094 19.5312 9.76561 19.5312H14.2728C14.6875 19.5312 15.024 19.1947 15.024 18.78C15.024 18.3653 14.6875 18.0288 14.2728 18.0288Z" fill="white"/>
</g>
<defs>
<clipPath id="clip0_102_1128">
<rect width="24.0385" height="24.0385" fill="white"/>
</clipPath>
</defs>
</svg>
