<svg width="29" height="29" viewBox="0 0 29 29" fill="none" xmlns="http://www.w3.org/2000/svg">
<g clip-path="url(#clip0_102_654)">
<path d="M25.9543 3.60577H13.72L8.14002 0.257813C7.85517 0.0865385 7.53425 0 7.21154 0C6.95373 0 6.69591 0.0558894 6.45613 0.165865C5.91526 0.416466 5.53125 0.917668 5.43389 1.50541L5.08413 3.60577H3.60577C1.61358 3.60577 0 5.21935 0 7.21154V27.0433C0 28.0385 0.807692 28.8462 1.80288 28.8462H27.0433C28.0385 28.8462 28.8462 28.0385 28.8462 27.0433V6.4976C28.8462 4.90024 27.5517 3.60577 25.9543 3.60577ZM7.21154 1.80288L19.2314 9.01442H6.00901L7.21154 1.80288ZM2.91346 5.54928C3.1262 5.45913 3.36058 5.40865 3.60577 5.40865H4.78305L4.18269 9.01442H3.60577C2.61238 9.01442 1.80288 8.20493 1.80288 7.21154C1.80288 6.46334 2.26262 5.82151 2.91346 5.54928ZM27.0433 21.6346H22.5361C21.0433 21.6346 19.8317 20.4231 19.8317 18.9303C19.8317 17.4375 21.0433 16.226 22.5361 16.226H27.0433V21.6346ZM27.0433 14.4231H22.5361C20.0517 14.4231 18.0288 16.4459 18.0288 18.9303C18.0288 21.4147 20.0517 23.4375 22.5361 23.4375H27.0433V25.2404V27.0433H1.80288V10.3179C2.33474 10.6262 2.94591 10.8173 3.60577 10.8173H3.88161H27.0433V14.4231ZM27.0433 8.99639V9.01442H22.7344L16.7254 5.40865H25.9543C26.5547 5.40865 27.0433 5.89724 27.0433 6.4976V8.99639Z" fill="white"/>
<path d="M22.536 19.8317C23.0338 19.8317 23.4374 19.4281 23.4374 18.9303C23.4374 18.4324 23.0338 18.0288 22.536 18.0288C22.0381 18.0288 21.6345 18.4324 21.6345 18.9303C21.6345 19.4281 22.0381 19.8317 22.536 19.8317Z" fill="white"/>
</g>
<defs>
<clipPath id="clip0_102_654">
<rect width="28.8462" height="28.8462" fill="white"/>
</clipPath>
</defs>
</svg>
